<?xml version="1.0" standalone="no"?>
<!DOCTYPE svg PUBLIC "-//W3C//DTD SVG 20010904//EN"
 "http://www.w3.org/TR/2001/REC-SVG-20010904/DTD/svg10.dtd">
<svg version="1.0" xmlns="http://www.w3.org/2000/svg"
 width="260.000000pt" height="260.000000pt" viewBox="0 0 260.000000 260.000000"
 preserveAspectRatio="xMidYMid meet">
<metadata>
Created by potrace 1.14, written by Peter Selinger 2001-2017
</metadata>
<g transform="translate(0.000000,260.000000) scale(0.100000,-0.100000)"
fill="#000000" stroke="none">
<path d="M1360 2157 c-38 -20 -54 -63 -58 -160 -5 -100 8 -200 44 -364 l25
-113 -35 -94 c-69 -182 -81 -239 -81 -381 0 -128 1 -131 43 -250 94 -260 115
-329 120 -405 l4 -76 -38 -34 c-22 -20 -120 -86 -219 -149 -99 -62 -184 -117
-190 -122 -5 -5 340 -9 808 -9 l817 0 0 1070 c0 589 -3 1070 -6 1070 -26 0
-158 -123 -221 -205 -36 -47 -88 -147 -99 -188 -5 -23 -11 -28 -28 -23 -96 28
-234 31 -338 7 l-37 -9 -78 107 c-89 122 -228 266 -293 303 -57 33 -107 42
-140 25z m248 -766 c38 -27 66 -94 57 -138 -3 -18 -20 -49 -36 -68 -49 -55
-116 -64 -189 -25 -31 17 -64 94 -57 136 17 105 139 156 225 95z m649 -83 c89
-89 30 -238 -95 -238 -85 0 -142 56 -142 139 0 88 64 145 153 138 40 -3 56
-11 84 -39z"/>
<path d="M1490 1368 c-31 -67 -23 -199 12 -206 35 -7 65 177 38 229 -16 29
-29 23 -50 -23z"/>
<path d="M2127 1305 c-30 -64 -17 -215 19 -215 32 0 54 136 35 208 -14 51 -32
54 -54 7z"/>
</g>
</svg>
